<?xml version="1.0" encoding="UTF-8" standalone="no"?>
<!-- Created with Inkscape (http://www.inkscape.org/) -->

<svg
   xmlns:dc="http://purl.org/dc/elements/1.1/"
   xmlns:cc="http://creativecommons.org/ns#"
   xmlns:rdf="http://www.w3.org/1999/02/22-rdf-syntax-ns#"
   xmlns:svg="http://www.w3.org/2000/svg"
   xmlns="http://www.w3.org/2000/svg"
   xmlns:sodipodi="http://sodipodi.sourceforge.net/DTD/sodipodi-0.dtd"
   xmlns:inkscape="http://www.inkscape.org/namespaces/inkscape"
   width="50"
   height="50"
   viewBox="0 0 13.229166 13.229167"
   version="1.1"
   id="svg8"
   inkscape:version="0.92.3 (2405546, 2018-03-11)"
   sodipodi:docname="img-a.svg">
  <defs
     id="defs2" />
  <sodipodi:namedview
     id="base"
     pagecolor="#ffffff"
     bordercolor="#666666"
     borderopacity="1.0"
     inkscape:pageopacity="0.0"
     inkscape:pageshadow="2"
     inkscape:zoom="11.2"
     inkscape:cx="33.615622"
     inkscape:cy="26.773907"
     inkscape:document-units="mm"
     inkscape:current-layer="layer1"
     showgrid="true"
     units="px"
     inkscape:window-width="1366"
     inkscape:window-height="688"
     inkscape:window-x="0"
     inkscape:window-y="0"
     inkscape:window-maximized="1">
    <inkscape:grid
       type="xygrid"
       id="grid10" />
  </sodipodi:namedview>
  <metadata
     id="metadata5">
    <rdf:RDF>
      <cc:Work
         rdf:about="">
        <dc:format>image/svg+xml</dc:format>
        <dc:type
           rdf:resource="http://purl.org/dc/dcmitype/StillImage" />
        <dc:title />
      </cc:Work>
    </rdf:RDF>
  </metadata>
  <g
     inkscape:label="Capa 1"
     inkscape:groupmode="layer"
     id="layer1"
     transform="translate(0,-283.77082)">
    <circle
       id="path3715"
       cx="6.614583"
       cy="290.38541"
       r="6.2680879"
       style="fill:none;stroke:#ffffff;stroke-width:0.4;stroke-miterlimit:4;stroke-dasharray:none;stroke-opacity:1" />
    <g
       id="g4556"
       transform="matrix(0.1773111,-0.12360308,0.12360308,0.1773111,-30.17965,238.45603)"
       style="fill:#ffffff">
      <path
         id="path4533"
         transform="matrix(0.26458333,0,0,0.26458333,0,283.77082)"
         d="m -18.916016,-39.421875 a 44.999999,44.999999 0 0 0 -39.191406,23.677734 44.999999,44.999999 0 0 1 26.996094,-9.052734 44.999999,44.999999 0 0 1 45,45 A 44.999999,44.999999 0 0 1 8.5117188,41.503906 44.999999,44.999999 0 0 0 26.515625,5.5566406 44.999999,44.999999 0 0 0 4.2636719,-33.207031 15,15 0 0 1 -5,-30 15,15 0 0 1 -18.916016,-39.421875 Z"
         style="fill:#ffffff;stroke:#000000;stroke-width:0;stroke-miterlimit:4;stroke-dasharray:none;stroke-opacity:1"
         inkscape:connector-curvature="0" />
      <circle
         r="3.96875"
         cy="271.86456"
         cx="-1.3229166"
         id="path4535"
         style="fill:#ffffff;stroke:#000000;stroke-width:0;stroke-miterlimit:4;stroke-dasharray:none;stroke-opacity:1" />
      <path
         sodipodi:nodetypes="ccccc"
         inkscape:connector-curvature="0"
         id="path4537"
         transform="matrix(0.26458333,0,0,0.26458333,0,283.77082)"
         d="m -21.410156,-23.705078 c -0.234059,1.22123 -0.353718,2.461626 -0.357422,3.705078 -1e-6,11.0456952 8.954305,20.00000049705633 19.9999999,20 C 1.5486568,-0.00640332 4.811256,-0.83732245 7.7265625,-2.4179688 1.4090703,-13.2675 -9.1536541,-20.984563 -21.410156,-23.705078 Z"
         style="fill:#ffffff;stroke:#000000;stroke-width:0;stroke-miterlimit:4;stroke-dasharray:none;stroke-opacity:1" />
    </g>
    <g
       transform="matrix(-0.19893215,-0.08451597,0.08451597,-0.19893215,-17.81132,349.26649)"
       id="g4564"
       style="fill:#ffffff">
      <path
         inkscape:connector-curvature="0"
         style="fill:#ffffff;stroke:#000000;stroke-width:0;stroke-miterlimit:4;stroke-dasharray:none;stroke-opacity:1"
         d="m -18.916016,-39.421875 a 44.999999,44.999999 0 0 0 -39.191406,23.677734 44.999999,44.999999 0 0 1 26.996094,-9.052734 44.999999,44.999999 0 0 1 45,45 A 44.999999,44.999999 0 0 1 8.5117188,41.503906 44.999999,44.999999 0 0 0 26.515625,5.5566406 44.999999,44.999999 0 0 0 4.2636719,-33.207031 15,15 0 0 1 -5,-30 15,15 0 0 1 -18.916016,-39.421875 Z"
         transform="matrix(0.26458333,0,0,0.26458333,0,283.77082)"
         id="path4558" />
      <circle
         style="fill:#ffffff;stroke:#000000;stroke-width:0;stroke-miterlimit:4;stroke-dasharray:none;stroke-opacity:1"
         id="circle4560"
         cx="-1.3229166"
         cy="271.86456"
         r="3.96875" />
      <path
         style="fill:#ffffff;stroke:#000000;stroke-width:0;stroke-miterlimit:4;stroke-dasharray:none;stroke-opacity:1"
         d="m -21.410156,-23.705078 c -0.234059,1.22123 -0.353718,2.461626 -0.357422,3.705078 -1e-6,11.0456952 8.954305,20.00000049705633 19.9999999,20 C 1.5486568,-0.00640332 4.811256,-0.83732245 7.7265625,-2.4179688 1.4090703,-13.2675 -9.1536541,-20.984563 -21.410156,-23.705078 Z"
         transform="matrix(0.26458333,0,0,0.26458333,0,283.77082)"
         id="path4562"
         inkscape:connector-curvature="0"
         sodipodi:nodetypes="ccccc" />
    </g>
    <g
       id="g4572"
       transform="matrix(-0.01975109,0.21523672,-0.21523672,-0.01975109,70.137877,295.77743)"
       style="fill:#ffffff">
      <path
         id="path4566"
         transform="matrix(0.26458333,0,0,0.26458333,0,283.77082)"
         d="m -18.916016,-39.421875 a 44.999999,44.999999 0 0 0 -39.191406,23.677734 44.999999,44.999999 0 0 1 26.996094,-9.052734 44.999999,44.999999 0 0 1 45,45 A 44.999999,44.999999 0 0 1 8.5117188,41.503906 44.999999,44.999999 0 0 0 26.515625,5.5566406 44.999999,44.999999 0 0 0 4.2636719,-33.207031 15,15 0 0 1 -5,-30 15,15 0 0 1 -18.916016,-39.421875 Z"
         style="fill:#ffffff;stroke:#000000;stroke-width:0;stroke-miterlimit:4;stroke-dasharray:none;stroke-opacity:1"
         inkscape:connector-curvature="0" />
      <circle
         r="3.96875"
         cy="271.86456"
         cx="-1.3229166"
         id="circle4568"
         style="fill:#ffffff;stroke:#000000;stroke-width:0;stroke-miterlimit:4;stroke-dasharray:none;stroke-opacity:1" />
      <path
         sodipodi:nodetypes="ccccc"
         inkscape:connector-curvature="0"
         id="path4570"
         transform="matrix(0.26458333,0,0,0.26458333,0,283.77082)"
         d="m -21.410156,-23.705078 c -0.234059,1.22123 -0.353718,2.461626 -0.357422,3.705078 -1e-6,11.0456952 8.954305,20.00000049705633 19.9999999,20 C 1.5486568,-0.00640332 4.811256,-0.83732245 7.7265625,-2.4179688 1.4090703,-13.2675 -9.1536541,-20.984563 -21.410156,-23.705078 Z"
         style="fill:#ffffff;stroke:#000000;stroke-width:0;stroke-miterlimit:4;stroke-dasharray:none;stroke-opacity:1" />
    </g>
  </g>
</svg>
